<mxfile host="app.diagrams.net" agent="Mozilla/5.0 (X11; Linux x86_64) AppleWebKit/537.36 (KHTML, like Gecko) Chrome/128.0.0.0 Safari/537.36 Edg/128.0.0.0" version="24.7.14">
  <diagram name="Page-1" id="6gcCeRbY4GYAOIiEUis3">
    <mxGraphModel dx="2810" dy="853" grid="1" gridSize="10" guides="1" tooltips="1" connect="1" arrows="1" fold="1" page="1" pageScale="1" pageWidth="850" pageHeight="1100" math="0" shadow="0">
      <root>
        <mxCell id="0" />
        <mxCell id="1" parent="0" />
        <mxCell id="ezSr3JsudCAfWvKVJgNK-4" value="Usuario" style="rounded=0;whiteSpace=wrap;html=1;" vertex="1" parent="1">
          <mxGeometry x="-690" y="520" width="120" height="60" as="geometry" />
        </mxCell>
        <mxCell id="ezSr3JsudCAfWvKVJgNK-5" value="Buscar" style="rounded=0;whiteSpace=wrap;html=1;" vertex="1" parent="1">
          <mxGeometry x="-690" y="720" width="120" height="60" as="geometry" />
        </mxCell>
        <mxCell id="ezSr3JsudCAfWvKVJgNK-14" value="" style="endArrow=none;html=1;rounded=0;entryX=0.5;entryY=1;entryDx=0;entryDy=0;exitX=0.5;exitY=0;exitDx=0;exitDy=0;" edge="1" parent="1" source="ezSr3JsudCAfWvKVJgNK-5" target="ezSr3JsudCAfWvKVJgNK-4">
          <mxGeometry width="50" height="50" relative="1" as="geometry">
            <mxPoint x="-540" y="620" as="sourcePoint" />
            <mxPoint x="-490" y="570" as="targetPoint" />
          </mxGeometry>
        </mxCell>
        <mxCell id="ezSr3JsudCAfWvKVJgNK-18" value="" style="endArrow=none;html=1;rounded=0;exitX=1;exitY=0.5;exitDx=0;exitDy=0;entryX=0.75;entryY=1;entryDx=0;entryDy=0;" edge="1" parent="1" source="ezSr3JsudCAfWvKVJgNK-5" target="ezSr3JsudCAfWvKVJgNK-84">
          <mxGeometry width="50" height="50" relative="1" as="geometry">
            <mxPoint x="-510" y="755.5" as="sourcePoint" />
            <mxPoint x="290" y="294.5" as="targetPoint" />
            <Array as="points">
              <mxPoint x="-220" y="750" />
            </Array>
          </mxGeometry>
        </mxCell>
        <mxCell id="ezSr3JsudCAfWvKVJgNK-74" value="Se Muestran" style="text;html=1;align=center;verticalAlign=middle;whiteSpace=wrap;rounded=0;" vertex="1" parent="1">
          <mxGeometry x="-390" y="770" width="60" height="30" as="geometry" />
        </mxCell>
        <mxCell id="ezSr3JsudCAfWvKVJgNK-75" value="Encuentra" style="text;html=1;align=center;verticalAlign=middle;whiteSpace=wrap;rounded=0;" vertex="1" parent="1">
          <mxGeometry x="-400" y="700" width="60" height="30" as="geometry" />
        </mxCell>
        <mxCell id="ezSr3JsudCAfWvKVJgNK-76" value="" style="endArrow=classic;html=1;rounded=0;" edge="1" parent="1">
          <mxGeometry width="50" height="50" relative="1" as="geometry">
            <mxPoint x="-500" y="740" as="sourcePoint" />
            <mxPoint x="-250" y="740" as="targetPoint" />
          </mxGeometry>
        </mxCell>
        <mxCell id="ezSr3JsudCAfWvKVJgNK-77" value="" style="endArrow=classic;html=1;rounded=0;" edge="1" parent="1">
          <mxGeometry width="50" height="50" relative="1" as="geometry">
            <mxPoint x="-270" y="760" as="sourcePoint" />
            <mxPoint x="-480" y="760" as="targetPoint" />
          </mxGeometry>
        </mxCell>
        <mxCell id="ezSr3JsudCAfWvKVJgNK-78" value="Es Realizada" style="text;html=1;align=center;verticalAlign=middle;whiteSpace=wrap;rounded=0;" vertex="1" parent="1">
          <mxGeometry x="-620" y="655" width="60" height="30" as="geometry" />
        </mxCell>
        <mxCell id="ezSr3JsudCAfWvKVJgNK-79" value="" style="endArrow=classic;html=1;rounded=0;" edge="1" parent="1">
          <mxGeometry width="50" height="50" relative="1" as="geometry">
            <mxPoint x="-620" y="710" as="sourcePoint" />
            <mxPoint x="-620" y="610" as="targetPoint" />
          </mxGeometry>
        </mxCell>
        <mxCell id="ezSr3JsudCAfWvKVJgNK-80" value="" style="endArrow=classic;html=1;rounded=0;" edge="1" parent="1">
          <mxGeometry width="50" height="50" relative="1" as="geometry">
            <mxPoint x="-641" y="585" as="sourcePoint" />
            <mxPoint x="-641" y="685" as="targetPoint" />
          </mxGeometry>
        </mxCell>
        <mxCell id="ezSr3JsudCAfWvKVJgNK-81" value="Realiza" style="text;html=1;align=center;verticalAlign=middle;whiteSpace=wrap;rounded=0;" vertex="1" parent="1">
          <mxGeometry x="-700" y="625" width="60" height="30" as="geometry" />
        </mxCell>
        <mxCell id="ezSr3JsudCAfWvKVJgNK-82" value="0...1" style="text;html=1;align=center;verticalAlign=middle;whiteSpace=wrap;rounded=0;" vertex="1" parent="1">
          <mxGeometry x="-680" y="685" width="60" height="30" as="geometry" />
        </mxCell>
        <mxCell id="ezSr3JsudCAfWvKVJgNK-83" value="0...*" style="text;html=1;align=center;verticalAlign=middle;whiteSpace=wrap;rounded=0;" vertex="1" parent="1">
          <mxGeometry x="-630" y="580" width="60" height="30" as="geometry" />
        </mxCell>
        <mxCell id="ezSr3JsudCAfWvKVJgNK-84" value="Servicio" style="rounded=0;whiteSpace=wrap;html=1;" vertex="1" parent="1">
          <mxGeometry x="-310" y="520" width="120" height="60" as="geometry" />
        </mxCell>
        <mxCell id="ezSr3JsudCAfWvKVJgNK-86" value="0...*" style="text;html=1;align=center;verticalAlign=middle;whiteSpace=wrap;rounded=0;" vertex="1" parent="1">
          <mxGeometry x="-280" y="590" width="60" height="30" as="geometry" />
        </mxCell>
        <mxCell id="ezSr3JsudCAfWvKVJgNK-87" value="1" style="text;html=1;align=center;verticalAlign=middle;whiteSpace=wrap;rounded=0;" vertex="1" parent="1">
          <mxGeometry x="-560" y="750" width="60" height="30" as="geometry" />
        </mxCell>
        <mxCell id="ezSr3JsudCAfWvKVJgNK-134" value="Contexto acotado 3 Busqueda" style="rounded=1;whiteSpace=wrap;html=1;" vertex="1" parent="1">
          <mxGeometry x="-380" y="140" width="820" height="40" as="geometry" />
        </mxCell>
      </root>
    </mxGraphModel>
  </diagram>
</mxfile>
